<svg version="1.1" xmlns="http://www.w3.org/2000/svg" viewBox="-407.1117370048109 -3644.1601623535153 2817.1675810652855 4099.840142822265"><desc>Created with Snap</desc><defs></defs><g><g transform="matrix(24.4752,0,0,24.4752,-222.2877,-3459.3361)"><g><path d="M78.4,66.5c-5.5,4.8-9.9,15.2-9.9,15.2s-6.9-11.4-12.9-15.3c-9.5-6.1-13.6-6.2-13.6-6.2V65c0,0,7.8,1.2,11.7,4.6   c8.2,7.1,14.8,18.5,14.8,18.5S74.4,75,80.1,70.5C88.1,64.3,95,65,95,65v-4.8C95,60.1,85.1,60.7,78.4,66.5z" fill="#195190" style=""></path><path d="M42,80c-6.4-3.6-17.8-4.3-17.8-4.3s8.7-10.1,10.5-17C37.5,47.9,36.2,44,36.2,44l-4.6,1.6c0,0,1.3,7.7-0.6,12.4   c-4.1,9.9-13,19.8-13,19.8s14.6,1.3,20.7,5.1c8.6,5.4,10.2,12,10.2,12l4.6-1.6C53.5,93.4,49.7,84.4,42,80z" fill="#195190" style=""></path><path d="M35.3,36.8c11.3-0.9,14.6-3.4,14.6-3.4l-3-3.8c0,0-6.9,3.7-12.1,3.4c-10.9-0.6-23.3-5.6-23.3-5.6s3.5,14,1.8,20.9   C10.9,58.2,5,61.8,5,61.8l3,3.8c0,0,7.5-6.5,9.1-15.1c1.3-7.1-1.7-18-1.7-18S28,37.4,35.3,36.8z" fill="#195190" style=""></path><path d="M37.4,17.8c7.3-1.1,16.7-7.4,16.7-7.4s-0.6,13.2,2.4,19.8c4.6,10.2,8,12.5,8,12.5l2.7-4c0,0-5.9-5.2-7.3-10.2   C56.9,18.2,57.7,5,57.7,5s-12.3,7.8-19.5,8.5c-10.2,1-15.6-3.3-15.6-3.3l-2.7,4.1C19.9,14.2,28.6,19.1,37.4,17.8z" fill="#195190" style=""></path><path d="M65,60.5c0,0,3.1-7.2,7.4-10.1c9-6.1,21.9-9.7,21.9-9.7s-11.5-8.9-14.5-15.4c-4.2-9.1-1.9-15.6-1.9-15.6l-4.8-1.2   c0,0-1.9,9.6,2.2,17.4c3.4,6.4,12.5,13.2,12.5,13.2S75,42.9,69.6,47.8c-8.3,7.6-9.4,11.5-9.4,11.5L65,60.5z" fill="#195190" style=""></path></g><desc>Created with Snap</desc><defs></defs></g><g><g transform="matrix(1.024,0,0,-1.024,0,0)"><path d="M272 -9Q184 -9 137 26Q90 61 73 124Q56 188 56 273L56 810L164 810L164 268Q164 216 171 173Q178 130 201 105Q225 80 272 80Q320 80 343 105Q366 130 373 173Q380 216 380 268L380 810L487 810L487 273Q487 188 470 124Q453 61 406 26Q360 -9 272 -9ZM704 0L597 0L597 578L704 578L704 521Q733 548 768 567Q803 586 845 586Q880 586 898 568Q917 550 924 523Q932 496 932 468L932 0L825 0L825 437Q825 468 816 485Q807 502 779 502Q761 502 741 491Q722 481 704 466L704 0ZM1150 0L1043 0L1043 578L1150 578L1150 0ZM1150 664L1043 664L1043 776L1150 776L1150 664ZM1419 -8Q1374 -8 1346 9Q1319 26 1306 57Q1294 88 1294 130L1294 507L1233 507L1233 578L1294 578L1294 747L1401 747L1401 578L1494 578L1494 507L1401 507L1401 137Q1401 103 1412 88Q1423 74 1454 74Q1462 74 1472 75Q1483 76 1493 77L1493 -2Q1473 -5 1456 -7Q1439 -8 1419 -8ZM1577 -145L1564 -145L1564 -63Q1603 -63 1626 -60Q1649 -56 1659 -47Q1669 -37 1669 -20Q1669 -11 1662 20Q1655 51 1647 86L1531 578L1639 578L1717 146L1792 578L1900 578L1762 -32Q1753 -74 1729 -99Q1705 -123 1667 -134Q1630 -145 1577 -145Z" fill="#195190" style=""></path></g></g></g></svg>